<?xml version="1.0" encoding="utf-8"?>
<!-- Generator: Adobe Illustrator 16.0.0, SVG Export Plug-In . SVG Version: 6.00 Build 0)  -->
<!DOCTYPE svg PUBLIC "-//W3C//DTD SVG 1.1//EN" "http://www.w3.org/Graphics/SVG/1.1/DTD/svg11.dtd">
<svg version="1.1" id="Layer_1" xmlns="http://www.w3.org/2000/svg" xmlns:xlink="http://www.w3.org/1999/xlink" x="0px" y="0px"
	 width="52.188px" height="44.797px" viewBox="0 0 52.188 44.797" enable-background="new 0 0 52.188 44.797" xml:space="preserve">
<g>
	<g id="pictures_1_">
		<path fill="none" stroke="#e5e5e5" stroke-width="2" stroke-miterlimit="10" d="M44.458,25.709V8.346
			c0-1.488-1.208-2.695-2.695-2.695H9.417c-1.488,0-2.695,1.207-2.695,2.695v23.822c0,1.489,1.208,2.695,2.695,2.695H38.69"/>
		<g>
			<path fill="#e5e5e5" d="M22.091,17.053c0.001-1.1,0.781-1.549,1.733-0.997l5.546,3.212c0.951,0.551,0.95,1.451-0.003,2
				l-5.554,3.197c-0.953,0.549-1.732,0.098-1.731-1.003L22.091,17.053z"/>
		</g>
	</g>
	<rect x="39.587" y="24.525" fill="none" width="30.507" height="20.271"/>

		<text transform="matrix(1 0 0 1 39.5869 35.1289)" fill="#e5e5e5" font-family="'FreightSansProBold-Regular'" font-size="15.5943">+</text>
</g>
</svg>
