<?xml version="1.0" encoding="utf-8"?>
<!-- Generator: Adobe Illustrator 16.0.0, SVG Export Plug-In . SVG Version: 6.00 Build 0)  -->
<!DOCTYPE svg PUBLIC "-//W3C//DTD SVG 1.1//EN" "http://www.w3.org/Graphics/SVG/1.1/DTD/svg11.dtd">
<svg version="1.1" id="Layer_1" xmlns="http://www.w3.org/2000/svg" xmlns:xlink="http://www.w3.org/1999/xlink" x="0px" y="0px"
	 width="52.188px" height="44.797px" viewBox="0 0 52.188 44.797" enable-background="new 0 0 52.188 44.797" xml:space="preserve">
<g>
	<polyline fill="none" stroke="#767677" stroke-linecap="round" stroke-linejoin="round" stroke-miterlimit="10" points="
		29.624,32.16 29.624,9.573 36.687,9.573 36.687,32.16 	"/>
	
		<line fill="none" stroke="#767677" stroke-linecap="round" stroke-linejoin="round" stroke-miterlimit="10" x1="36.687" y1="32.16" x2="15.501" y2="32.16"/>
	<polyline fill="none" stroke="#767677" stroke-linecap="round" stroke-linejoin="round" stroke-miterlimit="10" points="
		22.562,32.16 22.562,17.973 29.624,17.973 29.624,32.16 	"/>
	<polyline fill="none" stroke="#767677" stroke-linecap="round" stroke-linejoin="round" stroke-miterlimit="10" points="
		15.501,32.16 15.501,14.001 22.562,14.001 22.562,32.16 	"/>
	
		<rect x="17.821" y="20.154" fill="none" stroke="#767677" stroke-linecap="round" stroke-linejoin="round" stroke-miterlimit="10" width="2.42" height="1.613"/>
	
		<rect x="24.831" y="24.193" fill="none" stroke="#767677" stroke-linecap="round" stroke-linejoin="round" stroke-miterlimit="10" width="2.421" height="1.613"/>
	
		<rect x="24.831" y="28.229" fill="none" stroke="#767677" stroke-linecap="round" stroke-linejoin="round" stroke-miterlimit="10" width="2.421" height="1.613"/>
	
		<rect x="31.944" y="20.118" fill="none" stroke="#767677" stroke-linecap="round" stroke-linejoin="round" stroke-miterlimit="10" width="2.422" height="1.614"/>
	
		<rect x="31.944" y="16.083" fill="none" stroke="#767677" stroke-linecap="round" stroke-linejoin="round" stroke-miterlimit="10" width="2.422" height="1.614"/>
	
		<rect x="31.944" y="12.048" fill="none" stroke="#767677" stroke-linecap="round" stroke-linejoin="round" stroke-miterlimit="10" width="2.422" height="1.614"/>
	
		<rect x="31.944" y="24.154" fill="none" stroke="#767677" stroke-linecap="round" stroke-linejoin="round" stroke-miterlimit="10" width="2.422" height="1.613"/>
	
		<rect x="17.821" y="24.189" fill="none" stroke="#767677" stroke-linecap="round" stroke-linejoin="round" stroke-miterlimit="10" width="2.42" height="1.614"/>
	
		<rect x="17.821" y="28.225" fill="none" stroke="#767677" stroke-linecap="round" stroke-linejoin="round" stroke-miterlimit="10" width="2.42" height="1.614"/>
	
		<rect x="17.821" y="16.359" fill="none" stroke="#767677" stroke-linecap="round" stroke-linejoin="round" stroke-miterlimit="10" width="2.42" height="1.613"/>
	
		<rect x="24.728" y="20.291" fill="none" stroke="#767677" stroke-linecap="round" stroke-linejoin="round" stroke-miterlimit="10" width="2.42" height="1.614"/>
	
		<rect x="31.944" y="28.225" fill="none" stroke="#767677" stroke-linecap="round" stroke-linejoin="round" stroke-miterlimit="10" width="2.422" height="1.614"/>
</g>
</svg>
