<?xml version="1.0" encoding="utf-8"?>
<!-- Generator: Adobe Illustrator 16.0.0, SVG Export Plug-In . SVG Version: 6.00 Build 0)  -->
<!DOCTYPE svg PUBLIC "-//W3C//DTD SVG 1.1//EN" "http://www.w3.org/Graphics/SVG/1.1/DTD/svg11.dtd">
<svg version="1.1" id="Layer_1" xmlns="http://www.w3.org/2000/svg" xmlns:xlink="http://www.w3.org/1999/xlink" x="0px" y="0px"
	 width="52.188px" height="44.797px" viewBox="0 0 52.188 44.797" enable-background="new 0 0 52.188 44.797" xml:space="preserve">
<g>
	<g id="pictures_2_">
		<g>
			<circle fill="none" stroke="#e5e5e5" stroke-width="2" stroke-miterlimit="10" cx="37.809" cy="15.014" r="3.043"/>
			<g>
				<path fill="none" stroke="#e5e5e5" stroke-width="2" stroke-miterlimit="10" d="M8.595,29.621l10.856-10.857
					c0.389-0.389,1.033-0.396,1.43-0.017l12.667,12.09"/>
			</g>
			<g>
				<path fill="none" stroke="#e5e5e5" stroke-width="2" stroke-miterlimit="10" d="M39.954,28.418l-4.46-4.197
					c-0.401-0.377-1.047-0.367-1.436,0.021l-3.553,3.553"/>
			</g>
		</g>
		<path fill="none" stroke="#e5e5e5" stroke-width="2" stroke-miterlimit="10" d="M45.721,27.16V9.797
			c0-1.488-1.207-2.695-2.695-2.695H10.682c-1.488,0-2.695,1.207-2.695,2.695v23.822c0,1.49,1.207,2.695,2.695,2.695h29.272"/>
	</g>
	<rect x="40.852" y="25.977" fill="none" width="72.514" height="40.545"/>
	
		<text transform="matrix(1 0 0 1 40.8525 36.5801)" fill="#e5e5e5" font-family="'FreightSansProBold-Regular'" font-size="15.5943">+</text>
</g>
</svg>
