<?xml version="1.0" encoding="utf-8"?>
<!-- Generator: Adobe Illustrator 16.0.0, SVG Export Plug-In . SVG Version: 6.00 Build 0)  -->
<!DOCTYPE svg PUBLIC "-//W3C//DTD SVG 1.1//EN" "http://www.w3.org/Graphics/SVG/1.1/DTD/svg11.dtd">
<svg version="1.1" id="Layer_1" xmlns="http://www.w3.org/2000/svg" xmlns:xlink="http://www.w3.org/1999/xlink" x="0px" y="0px"
	 width="16.555px" height="10.75px" viewBox="-2.649 -1.248 16.555 10.75" enable-background="new -2.649 -1.248 16.555 10.75"
	 xml:space="preserve">
<g>
	<g>
		<path fill="none" stroke="#fff" stroke-miterlimit="10" d="M1.601,4.98v1.143c0,0.144,0.111,0.299,0.25,0.341l3.691,1.189
			c0.139,0.044,0.361,0.04,0.498-0.008l3.369-1.174c0.139-0.047,0.25-0.205,0.25-0.349V4.98"/>
	</g>
	<g>
		<path fill="none" stroke="#fff" stroke-miterlimit="10" d="M-0.749,3.19l-1.299-0.544c-0.135-0.057-0.135-0.147,0-0.204
			l7.514-3.146C5.601-0.761,5.819-0.763,5.954-0.71l7.352,2.9c0.135,0.053,0.135,0.143,0.002,0.197L5.794,5.536
			C5.661,5.593,5.442,5.594,5.308,5.542L1.007,3.845"/>
	</g>
	<g>
		<path fill="none" stroke="#fff" stroke-miterlimit="10" d="M5.63,2.417L0.79,2.729c-0.361,0.024-0.656,0.34-0.656,0.701v6.071"
			/>
	</g>
</g>
</svg>
