<?xml version="1.0" encoding="utf-8"?>
<!-- Generator: Adobe Illustrator 16.0.0, SVG Export Plug-In . SVG Version: 6.00 Build 0)  -->
<!DOCTYPE svg PUBLIC "-//W3C//DTD SVG 1.1//EN" "http://www.w3.org/Graphics/SVG/1.1/DTD/svg11.dtd">
<svg version="1.1" id="Layer_1" xmlns="http://www.w3.org/2000/svg" xmlns:xlink="http://www.w3.org/1999/xlink" x="0px" y="0px"
	 width="799.37px" height="309.151px" viewBox="0 0 799.37 309.151" enable-background="new 0 0 799.37 309.151"
	 xml:space="preserve">
<g>
	<path fill="#999999" d="M161.406,236.327l-19.037-79.883l-4.455-24.161l-2.981-19.331h-0.927
		c-4.874,27.606-8.069,45.003-9.831,52.19l-17.062,71.184H46.014L0,68.706h57.274L70.93,133.04
		c4.372,22.102,6.894,40.466,7.606,55.089h0.883c0.293-9.12,3.069-26.39,8.197-51.81l15.631-67.613h64.247l14.291,68.452
		c4.538,21.808,7.436,38.827,8.611,50.971h0.927c0.586-7.523,1.512-16.891,2.981-28.069c1.39-11.178,2.903-20.213,4.582-27.02
		l14.876-64.334h56.098l-46.268,167.622H161.406z"/>
	<path fill="#999999" d="M341.967,236.327h-55.885V68.706h55.885V236.327L341.967,236.327z M341.967,27.942
		c0,15.466-12.52,27.947-27.898,27.947c-15.509,0-27.986-12.481-27.986-27.947C286.083,12.519,298.56,0,314.069,0
		C329.447,0,341.967,12.519,341.967,27.942z"/>
	<path fill="#999999" d="M450.007,193.549c7.479,0,16.515-1.932,26.936-5.757v42.193c-7.483,3.318-14.67,5.713-21.477,7.142
		c-6.85,1.426-14.833,2.143-23.908,2.143c-18.827,0-32.356-4.748-40.719-14.286c-8.279-9.5-12.397-24.121-12.397-43.828v-69.129
		h-19.541V88.539l24.838-18.237l14.451-35.212h36.646v33.617h39.71v43.321h-39.71v65.261
		C434.838,188.128,439.834,193.549,450.007,193.549z"/>
	<path fill="#999999" d="M584.643,193.549c7.562,0,16.598-1.932,27.104-5.757v42.193c-7.564,3.318-14.75,5.713-21.556,7.142
		c-6.768,1.426-14.75,2.143-23.911,2.143c-18.824,0-32.358-4.748-40.638-14.286c-8.358-9.5-12.477-24.121-12.477-43.828v-69.129
		h-19.584V88.539l24.879-18.237l14.456-35.212h36.642v33.617h39.709v43.321h-39.709v65.261
		C569.558,188.128,574.559,193.549,584.643,193.549z"/>
	<path fill="#999999" d="M620.401,68.706h58.912l27.483,96.145c1.386,5,2.271,11.134,2.776,18.193h1.133
		c0.755-6.767,1.892-12.773,3.444-17.901l28.199-96.438h57.021l-64.084,178.253c-8.236,22.735-18.32,38.744-30.254,48.116
		c-11.974,9.368-27.606,14.076-46.854,14.076c-7.396,0-15.041-0.839-22.9-2.562v-45.427c5.126,1.219,10.84,1.81,17.314,1.81
		c4.997,0,9.284-1.01,13.065-2.947c3.698-1.971,6.934-4.787,9.666-8.358c2.859-3.616,5.758-9.538,8.953-17.691L620.401,68.706z"/>
</g>
</svg>
