<?xml version="1.0" encoding="utf-8"?>
<!-- Generator: Adobe Illustrator 16.0.0, SVG Export Plug-In . SVG Version: 6.00 Build 0)  -->
<!DOCTYPE svg PUBLIC "-//W3C//DTD SVG 1.1//EN" "http://www.w3.org/Graphics/SVG/1.1/DTD/svg11.dtd">
<svg version="1.1" id="Layer_1" xmlns="http://www.w3.org/2000/svg" xmlns:xlink="http://www.w3.org/1999/xlink" x="0px" y="0px"
	 width="292.809px" height="147.981px" viewBox="0 0 292.809 147.981" enable-background="new 0 0 292.809 147.981"
	 xml:space="preserve">
<polyline fill="none" stroke="#CCA6A5" stroke-width="2" stroke-miterlimit="10" points="26.134,128.783 33.027,120.335 
	52.442,117.833 59.406,103.136 68.998,113.833 81.039,103.059 86.331,89.035 94.765,88.295 115.842,92.438 126.792,89.848 
	138.709,81.257 155.39,89.848 170.801,74.447 179.41,78.194 192.934,66.911 203.409,57.65 211.061,42.563 226.309,42.563 
	243.479,35.33 258.337,18.045 "/>
<g opacity="0.25">
	<g>
		<defs>
			<rect id="SVGID_1_" x="26.134" y="63.329" width="232.203" height="10.027"/>
		</defs>
		<clipPath id="SVGID_2_">
			<use xlink:href="#SVGID_1_"  overflow="visible"/>
		</clipPath>
		<line clip-path="url(#SVGID_2_)" fill="#B2B2B2" x1="26.134" y1="68.342" x2="258.332" y2="68.342"/>
		
			<rect x="36.88" y="67.987" clip-path="url(#SVGID_2_)" fill-rule="evenodd" clip-rule="evenodd" fill="#241F20" width="2.694" height="1.003"/>
		
			<rect x="32.049" y="67.987" clip-path="url(#SVGID_2_)" fill-rule="evenodd" clip-rule="evenodd" fill="#241F20" width="2.693" height="1.003"/>
		
			<rect x="27.232" y="67.987" clip-path="url(#SVGID_2_)" fill-rule="evenodd" clip-rule="evenodd" fill="#241F20" width="2.693" height="1.003"/>
		
			<rect x="51.393" y="67.987" clip-path="url(#SVGID_2_)" fill-rule="evenodd" clip-rule="evenodd" fill="#241F20" width="2.692" height="1.003"/>
		
			<rect x="46.562" y="67.987" clip-path="url(#SVGID_2_)" fill-rule="evenodd" clip-rule="evenodd" fill="#241F20" width="2.691" height="1.003"/>
		
			<rect x="41.746" y="67.987" clip-path="url(#SVGID_2_)" fill-rule="evenodd" clip-rule="evenodd" fill="#241F20" width="2.693" height="1.003"/>
		
			<rect x="65.904" y="67.987" clip-path="url(#SVGID_2_)" fill-rule="evenodd" clip-rule="evenodd" fill="#241F20" width="2.693" height="1.003"/>
		
			<rect x="61.074" y="67.987" clip-path="url(#SVGID_2_)" fill-rule="evenodd" clip-rule="evenodd" fill="#241F20" width="2.693" height="1.003"/>
		
			<rect x="56.258" y="67.987" clip-path="url(#SVGID_2_)" fill-rule="evenodd" clip-rule="evenodd" fill="#241F20" width="2.693" height="1.003"/>
		
			<rect x="80.418" y="67.987" clip-path="url(#SVGID_2_)" fill-rule="evenodd" clip-rule="evenodd" fill="#241F20" width="2.693" height="1.003"/>
		
			<rect x="75.587" y="67.987" clip-path="url(#SVGID_2_)" fill-rule="evenodd" clip-rule="evenodd" fill="#241F20" width="2.691" height="1.003"/>
		
			<rect x="70.771" y="67.987" clip-path="url(#SVGID_2_)" fill-rule="evenodd" clip-rule="evenodd" fill="#241F20" width="2.693" height="1.003"/>
		
			<rect x="94.931" y="67.987" clip-path="url(#SVGID_2_)" fill-rule="evenodd" clip-rule="evenodd" fill="#241F20" width="2.694" height="1.003"/>
		
			<rect x="90.098" y="67.987" clip-path="url(#SVGID_2_)" fill-rule="evenodd" clip-rule="evenodd" fill="#241F20" width="2.694" height="1.003"/>
		
			<rect x="85.282" y="67.987" clip-path="url(#SVGID_2_)" fill-rule="evenodd" clip-rule="evenodd" fill="#241F20" width="2.694" height="1.003"/>
		
			<rect x="109.442" y="67.987" clip-path="url(#SVGID_2_)" fill-rule="evenodd" clip-rule="evenodd" fill="#241F20" width="2.694" height="1.003"/>
		
			<rect x="104.612" y="67.987" clip-path="url(#SVGID_2_)" fill-rule="evenodd" clip-rule="evenodd" fill="#241F20" width="2.691" height="1.003"/>
		
			<rect x="99.797" y="67.987" clip-path="url(#SVGID_2_)" fill-rule="evenodd" clip-rule="evenodd" fill="#241F20" width="2.693" height="1.003"/>
		
			<rect x="123.956" y="67.987" clip-path="url(#SVGID_2_)" fill-rule="evenodd" clip-rule="evenodd" fill="#241F20" width="2.694" height="1.003"/>
		
			<rect x="119.123" y="67.987" clip-path="url(#SVGID_2_)" fill-rule="evenodd" clip-rule="evenodd" fill="#241F20" width="2.695" height="1.003"/>
		
			<rect x="114.308" y="67.987" clip-path="url(#SVGID_2_)" fill-rule="evenodd" clip-rule="evenodd" fill="#241F20" width="2.693" height="1.003"/>
		
			<rect x="138.469" y="67.987" clip-path="url(#SVGID_2_)" fill-rule="evenodd" clip-rule="evenodd" fill="#241F20" width="2.693" height="1.003"/>
		
			<rect x="133.636" y="67.987" clip-path="url(#SVGID_2_)" fill-rule="evenodd" clip-rule="evenodd" fill="#241F20" width="2.693" height="1.003"/>
		
			<rect x="128.822" y="67.987" clip-path="url(#SVGID_2_)" fill-rule="evenodd" clip-rule="evenodd" fill="#241F20" width="2.69" height="1.003"/>
		
			<rect x="152.981" y="67.987" clip-path="url(#SVGID_2_)" fill-rule="evenodd" clip-rule="evenodd" fill="#241F20" width="2.692" height="1.003"/>
		
			<rect x="148.148" y="67.987" clip-path="url(#SVGID_2_)" fill-rule="evenodd" clip-rule="evenodd" fill="#241F20" width="2.694" height="1.003"/>
		
			<rect x="143.334" y="67.987" clip-path="url(#SVGID_2_)" fill-rule="evenodd" clip-rule="evenodd" fill="#241F20" width="2.692" height="1.003"/>
		
			<rect x="167.491" y="67.987" clip-path="url(#SVGID_2_)" fill-rule="evenodd" clip-rule="evenodd" fill="#241F20" width="2.695" height="1.003"/>
		
			<rect x="162.663" y="67.987" clip-path="url(#SVGID_2_)" fill-rule="evenodd" clip-rule="evenodd" fill="#241F20" width="2.691" height="1.003"/>
		
			<rect x="157.848" y="67.987" clip-path="url(#SVGID_2_)" fill-rule="evenodd" clip-rule="evenodd" fill="#241F20" width="2.69" height="1.003"/>
		
			<rect x="182.006" y="67.987" clip-path="url(#SVGID_2_)" fill-rule="evenodd" clip-rule="evenodd" fill="#241F20" width="2.693" height="1.003"/>
		
			<rect x="177.174" y="67.987" clip-path="url(#SVGID_2_)" fill-rule="evenodd" clip-rule="evenodd" fill="#241F20" width="2.692" height="1.003"/>
		
			<rect x="172.359" y="67.987" clip-path="url(#SVGID_2_)" fill-rule="evenodd" clip-rule="evenodd" fill="#241F20" width="2.692" height="1.003"/>
		
			<rect x="196.519" y="67.987" clip-path="url(#SVGID_2_)" fill-rule="evenodd" clip-rule="evenodd" fill="#241F20" width="2.691" height="1.003"/>
		
			<rect x="191.687" y="67.987" clip-path="url(#SVGID_2_)" fill-rule="evenodd" clip-rule="evenodd" fill="#241F20" width="2.692" height="1.003"/>
		
			<rect x="186.873" y="67.987" clip-path="url(#SVGID_2_)" fill-rule="evenodd" clip-rule="evenodd" fill="#241F20" width="2.689" height="1.003"/>
		
			<rect x="211.031" y="67.987" clip-path="url(#SVGID_2_)" fill-rule="evenodd" clip-rule="evenodd" fill="#241F20" width="2.691" height="1.003"/>
		
			<rect x="206.199" y="67.987" clip-path="url(#SVGID_2_)" fill-rule="evenodd" clip-rule="evenodd" fill="#241F20" width="2.692" height="1.003"/>
		
			<rect x="201.384" y="67.987" clip-path="url(#SVGID_2_)" fill-rule="evenodd" clip-rule="evenodd" fill="#241F20" width="2.693" height="1.003"/>
		
			<rect x="225.544" y="67.987" clip-path="url(#SVGID_2_)" fill-rule="evenodd" clip-rule="evenodd" fill="#241F20" width="2.693" height="1.003"/>
		
			<rect x="220.712" y="67.987" clip-path="url(#SVGID_2_)" fill-rule="evenodd" clip-rule="evenodd" fill="#241F20" width="2.692" height="1.003"/>
		
			<rect x="215.895" y="67.987" clip-path="url(#SVGID_2_)" fill-rule="evenodd" clip-rule="evenodd" fill="#241F20" width="2.694" height="1.003"/>
		
			<rect x="240.057" y="67.987" clip-path="url(#SVGID_2_)" fill-rule="evenodd" clip-rule="evenodd" fill="#241F20" width="2.693" height="1.003"/>
		
			<rect x="235.225" y="67.987" clip-path="url(#SVGID_2_)" fill-rule="evenodd" clip-rule="evenodd" fill="#241F20" width="2.692" height="1.003"/>
		
			<rect x="230.408" y="67.987" clip-path="url(#SVGID_2_)" fill-rule="evenodd" clip-rule="evenodd" fill="#241F20" width="2.694" height="1.003"/>
		
			<rect x="254.569" y="67.987" clip-path="url(#SVGID_2_)" fill-rule="evenodd" clip-rule="evenodd" fill="#241F20" width="2.689" height="1.003"/>
		
			<rect x="249.737" y="67.987" clip-path="url(#SVGID_2_)" fill-rule="evenodd" clip-rule="evenodd" fill="#241F20" width="2.693" height="1.003"/>
		
			<rect x="244.92" y="67.987" clip-path="url(#SVGID_2_)" fill-rule="evenodd" clip-rule="evenodd" fill="#241F20" width="2.694" height="1.003"/>
	</g>
</g>
<text transform="matrix(1 0 0 1 258.3369 11.375)"><tspan x="0" y="0" fill="#9C9D9D" font-family="'FreightSansProLight-Regular'" font-size="14">N</tspan><tspan x="8.834" y="0" fill="#9C9D9D" font-family="'FreightSansProLight-Regular'" font-size="14">o</tspan><tspan x="16.24" y="0" fill="#9C9D9D" font-family="'FreightSansProLight-Regular'" font-size="14">w</tspan></text>
<text transform="matrix(1 0 0 1 0 144.3691)" fill="#9C9D9D" font-family="'FreightSansProLight-Regular'" font-size="14">May 17</text>
<text transform="matrix(1 0 0 1 262.9473 71.3564)" fill="#9C9D9D" font-family="'FreightSansProLight-Regular'" font-size="14">#500</text>
</svg>
